<?xml version="1.0" encoding="UTF-8"?>
<svg id="Camada_1" xmlns="http://www.w3.org/2000/svg" xmlns:xlink="http://www.w3.org/1999/xlink" viewBox="0 0 768 391.12">
  <defs>
    <style>
      .cls-1 {
        fill: url(#linear-gradient-2);
      }

      .cls-2 {
        fill: #21296b;
      }

      .cls-3 {
        fill: url(#linear-gradient);
      }
    </style>
    <linearGradient id="linear-gradient" x1="155.43" y1="203.08" x2="274.84" y2="123.44" gradientUnits="userSpaceOnUse">
      <stop offset="0" stop-color="#aed233" stop-opacity="0"/>
      <stop offset=".03" stop-color="#aed233" stop-opacity=".06"/>
      <stop offset=".24" stop-color="#aed233" stop-opacity=".39"/>
      <stop offset=".43" stop-color="#aed233" stop-opacity=".65"/>
      <stop offset=".59" stop-color="#aed233" stop-opacity=".84"/>
      <stop offset=".72" stop-color="#aed233" stop-opacity=".96"/>
      <stop offset=".8" stop-color="#aed233"/>
    </linearGradient>
    <linearGradient id="linear-gradient-2" x1="109.13" y1="281.56" x2="228.53" y2="201.92" gradientUnits="userSpaceOnUse">
      <stop offset="0" stop-color="#aed233" stop-opacity="0"/>
      <stop offset=".03" stop-color="#aed233" stop-opacity=".06"/>
      <stop offset=".24" stop-color="#aed233" stop-opacity=".39"/>
      <stop offset=".43" stop-color="#aed233" stop-opacity=".65"/>
      <stop offset=".59" stop-color="#aed233" stop-opacity=".84"/>
      <stop offset=".72" stop-color="#aed233" stop-opacity=".96"/>
      <stop offset=".8" stop-color="#aed233"/>
    </linearGradient>
  </defs>
  <g>
    <path class="cls-2" d="M312.92,235.91c-13.62,0-24.42-3.13-26.14-3.74-1.11-.4-1.72-1.31-1.72-2.22v-.2l1.41-7.77c.2-1.21.91-1.62,1.72-1.62.4,0,.91.1.91.1,2.22.51,12.52,3.43,21.7,3.43,7.97,0,14.43-2.12,14.43-9.79s-7.17-8.68-16.35-10.09c-10.5-1.62-24.52-4.74-24.52-22.1s12.82-22.81,28.96-22.81c11.81,0,21.9,2.72,24.12,3.43,1.31.4,2.02,1.11,2.02,2.22v.1l-1.51,8.07c-.2.91-.71,1.31-1.61,1.31-.3,0-.81-.1-.81-.1-5.85-1.21-12.31-3.03-20.49-3.03-7.07,0-14.03,1.31-14.03,9.08s7.87,8.17,16.55,9.89l1.61.3c11.3,2.22,23.21,4.54,23.21,22.61s-14.13,22.91-29.47,22.91Z"/>
    <path class="cls-2" d="M375.96,236.12c-15.74,0-24.12-4.54-24.12-19.07v-32.19c0-1.41.5-2.22,1.82-2.42l11.51-1.92h.5c1.01,0,1.72.51,1.72,1.82v35.32c0,5.35,1.82,8.17,8.58,8.17,7.37,0,8.58-3.53,8.58-8.17v-32.8c0-1.41.5-2.12,1.82-2.42l11.2-1.82s.61-.1.81-.1c1.01,0,1.72.61,1.72,1.82v34.62c0,13.52-7.47,19.17-24.12,19.17Z"/>
    <path class="cls-2" d="M437.25,236.12c-5.35,0-9.99-.71-13.73-1.82l1.11.31v17.05c0,1.41-.5,2.22-1.82,2.42l-11.51,1.92h-.5c-1.01,0-1.72-.51-1.72-1.82v-62.07c0-5.75,2.32-7.06,6.66-8.48,6.36-2.02,14.13-3.13,20.99-3.13,19.98,0,22.3,12.01,22.3,27.86,0,14.63-2.83,27.75-21.8,27.75ZM433.52,191.1c-3.94,0-8.88,1.31-8.88,1.31v32.3s3.53.91,7.87.91c8.17,0,10.7-2.62,10.7-17.66s-2.72-16.85-9.69-16.85Z"/>
    <path class="cls-2" d="M495.46,236.12c-5.35,0-9.99-.71-13.73-1.82l1.11-1.28v18.64c0,1.41-.5,2.22-1.82,2.42l-11.51,1.92h-.5c-1.01,0-1.72-.51-1.72-1.82v-62.07c0-5.75,2.32-7.06,6.66-8.48,6.36-2.02,14.13-3.13,20.99-3.13,19.98,0,22.3,12.01,22.3,27.86,0,14.63-2.83,27.75-21.8,27.75ZM491.72,191.1c-3.94,0-8.88,1.31-8.88,1.31v32.3s3.53.91,7.87.91c8.17,0,10.7-2.62,10.7-17.66s-2.72-16.85-9.69-16.85Z"/>
    <path class="cls-2" d="M540.7,163.47h-.5l-11.71,1.92c-1.31.2-1.61.81-1.61,2.12v65.78c0,.91.71,1.51,1.61,1.51h12.31c.91,0,1.61-.61,1.61-1.51v-68.1c0-1.21-.71-1.72-1.72-1.72Z"/>
    <path class="cls-2" d="M628.88,212.3c0,1.31-.5,2.62-2.42,2.62h-32.6c0,4.24,1.41,6.66,4.34,8.58,2.52,1.51,5.95,2.22,10.9,2.22,6.16,0,11.1-1.61,13.73-2.32,0,0,.4-.1.6-.1.71,0,1.21.2,1.51,1.31l1.31,5.75c.1.4.1.71.1.81,0,.91-.5,1.31-1.11,1.62-3.23,1.31-10.19,3.33-18.77,3.33-19.68,0-28.06-7.27-28.06-27.55s5.85-28.06,25.43-28.06c9.99,0,16.25,2.32,20.08,6.86,3.73,4.54,5.05,11.2,5.05,20.08l-.1,4.85ZM613.64,204.93c0-2.72-.2-4.94-.71-7.17-1.11-5.25-3.84-6.96-8.88-6.96-6.36,0-8.68,2.02-9.59,6.56-.5,2.52-.5,5.15-.61,8.18h19.78v-.61Z"/>
    <path class="cls-2" d="M637.29,189.19c0-2.93,1.41-4.04,4.54-5.25,5.75-2.12,15.24-3.13,22-3.33h.91c1.11,0,1.41.1,2.02.51.3.2.71.71.71,1.61v7.37c0,1.11-.1,2.02-1.82,2.02-5.85,0-11.1.71-12.82,1.11v40.07c0,.91-.61,1.51-1.61,1.51h-12.31c-1.01,0-1.62-.6-1.62-1.51v-44.1Z"/>
    <path class="cls-2" d="M568.38,183.03h-12.31c-.91,0-1.61.61-1.61,1.51v48.75c0,.91.71,1.51,1.61,1.51h12.31c.91,0,1.61-.61,1.61-1.51v-48.75c0-.91-.71-1.51-1.61-1.51Z"/>
    <path class="cls-2" d="M568.38,158.91h-.5l-11.71,1.92c-1.31.2-1.61.81-1.61,2.12v10.19c0,1.92.91,2.62,2.83,2.62h9.89c1.92,0,2.83-.71,2.83-2.62v-12.51c0-1.21-.71-1.72-1.72-1.72Z"/>
  </g>
  <g>
    <path class="cls-3" d="M148.39,188.53c-1.71,1.14-1.9,2.77-1.05,5.16,0,0,1.4,4.01,5.62,10.38,4.21,6.37,7.36,9.23,7.36,9.23,1.87,1.71,3.45,2.18,5.16,1.05l137.23-90.24c1.72-1.14,1.9-2.77,1.05-5.16,0,0-1.4-4.01-5.62-10.38-4.21-6.37-7.36-9.23-7.36-9.23-1.87-1.71-3.45-2.18-5.16-1.05l-137.23,90.24Z"/>
    <path class="cls-1" d="M102.08,267.02c-1.72,1.14-1.9,2.77-1.05,5.16,0,0,1.4,4.01,5.62,10.38,4.21,6.37,7.36,9.23,7.36,9.23,1.87,1.71,3.45,2.18,5.16,1.05l137.23-90.24c1.71-1.14,1.9-2.77,1.05-5.16,0,0-1.4-4.01-5.62-10.38-4.21-6.37-7.36-9.23-7.36-9.23-1.87-1.71-3.45-2.18-5.16-1.05l-137.23,90.24Z"/>
  </g>
</svg>